<?xml version="1.0" encoding="utf-8"?>
<!-- Generator: Adobe Illustrator 16.0.2, SVG Export Plug-In . SVG Version: 6.00 Build 0)  -->
<!DOCTYPE svg PUBLIC "-//W3C//DTD SVG 1.1//EN" "http://www.w3.org/Graphics/SVG/1.1/DTD/svg11.dtd">
<svg version="1.1" id="Layer_1" xmlns="http://www.w3.org/2000/svg" xmlns:xlink="http://www.w3.org/1999/xlink" x="0px" y="0px"
	 width="234px" height="84px" viewBox="0 0 234 84" enable-background="new 0 0 234 84" xml:space="preserve">
<g>
	<defs>
		<rect id="SVGID_1_" x="-56" y="-60.812" width="353" height="217.812"/>
	</defs>
	<clipPath id="SVGID_2_">
		<use xlink:href="#SVGID_1_"  overflow="visible"/>
	</clipPath>
	<path clip-path="url(#SVGID_2_)" fill="#F8931D" d="M39.69,19.146l-1.64-3.382L25.762,35.322h6.977l6.705-11.086
		C40.394,22.664,40.486,20.786,39.69,19.146"/>
	<path clip-path="url(#SVGID_2_)" fill="#F2F7FD" d="M33.139,5.734l1.542,3.123c0.813,1.648,0.729,3.542-0.23,5.125L19.988,37.897
		h26.52c0.875,0,1.441,0.832,1.04,1.531l-20.969,36.58l-1.924-3.907c-0.837-1.7-0.753-3.652,0.229-5.29l14.503-24.189H11.648
		c-0.76,0-1.239-0.734-0.865-1.329L33.139,5.734z"/>
	<path clip-path="url(#SVGID_2_)" fill="#F8931D" d="M42.978,25.409l1.741,3.437c0.841,1.659,0.766,3.577-0.203,5.178l-0.786,1.299
		h-6.98L42.978,25.409z"/>
	<path clip-path="url(#SVGID_2_)" fill="#F8931D" d="M26.466,45.154l6.495,0.009L21.013,64.92l-1.699-3.383
		c-0.877-1.747-0.776-3.765,0.273-5.434L26.466,45.154z"/>
	<path clip-path="url(#SVGID_2_)" fill="#F8931D" d="M14.448,51.844l1.579,3.146l5.952-9.841l-6.445-0.01l-0.787,1.229
		C13.674,48.045,13.563,50.082,14.448,51.844"/>
	<path clip-path="url(#SVGID_2_)" fill="#19AD9F" d="M61.467,24.437h-1.266c-1.578,0-2.779,0.34-3.57,1.012
		c-0.798,0.677-1.203,1.709-1.203,3.067v2.067c0,0.74,0.123,1.377,0.366,1.892c0.258,0.543,0.668,0.982,1.226,1.307
		c0.233,0.132,0.732,0.339,2.379,0.606c0.083,0.012,0.15,0.023,0.201,0.035l0.895,0.132c2.313,0.341,2.59,0.743,2.617,0.796
		c0.073,0.13,0.123,0.271,0.154,0.429c0.023,0.121,0.051,0.371,0.051,0.882v1.419c0,0.941-0.216,1.291-0.344,1.415
		c-0.213,0.207-0.68,0.316-1.352,0.316H59.88c-0.726,0-1.237-0.132-1.477-0.382c-0.182-0.189-0.398-0.636-0.398-1.685v-1.889h-2.923
		v1.331c0,1.971,0.349,3.299,1.066,4.06c0.73,0.775,2.002,1.169,3.779,1.169h1.587c1.587,0,2.792-0.34,3.582-1.011
		c0.799-0.679,1.204-1.711,1.204-3.067v-2.381c0-1.231-0.365-2.159-1.083-2.757c-0.691-0.575-1.989-1.002-3.976-1.305l-0.887-0.123
		c-1.979-0.263-1.979-0.977-1.979-1.212v-1.788c0-0.93,0.214-1.274,0.341-1.396c0.149-0.144,0.508-0.313,1.367-0.313h1.432
		c0.732,0,1.239,0.127,1.468,0.369c0.143,0.151,0.383,0.571,0.383,1.688v1.039H66.3v-0.972c0-1.684-0.369-2.867-1.127-3.616
		C64.41,24.818,63.164,24.437,61.467,24.437"/>
	<polygon clip-path="url(#SVGID_2_)" fill="#19AD9F" points="71.891,24.639 69.04,24.639 69.04,42.216 77.154,42.216 77.154,39.611 
		71.891,39.611 	"/>
	<rect x="78.689" y="24.639" clip-path="url(#SVGID_2_)" fill="#19AD9F" width="2.851" height="17.577"/>
	<polygon clip-path="url(#SVGID_2_)" fill="#19AD9F" points="93.84,37.316 88.182,24.639 84.673,24.639 84.673,42.216 
		87.476,42.216 87.476,29.787 93.038,42.216 94.844,42.216 94.936,42.216 96.643,42.216 96.643,24.639 93.84,24.639 	"/>
	<path clip-path="url(#SVGID_2_)" fill="#19AD9F" d="M105.099,32.975v2.581h3.116v0.581c0,2.395-0.293,3.043-0.419,3.211
		c-0.289,0.383-1.075,0.464-1.682,0.464h-1.516c-0.608,0-1.395-0.081-1.688-0.471c-0.128-0.169-0.425-0.819-0.425-3.204v-5.576
		c0-1.849,0.265-2.608,0.487-2.92c0.276-0.389,0.808-0.578,1.626-0.578h1.348c0.785,0,1.32,0.177,1.592,0.527
		c0.217,0.279,0.48,0.933,0.499,2.461l0.005,0.483l2.977,0.017v-1.054c0-1.764-0.388-3.017-1.188-3.829
		c-0.806-0.818-2.096-1.233-3.835-1.233h-1.314c-1.799,0-3.13,0.511-3.956,1.52c-0.799,0.975-1.187,2.481-1.187,4.604v6.145
		c0,1.123,0.06,1.94,0.184,2.498c0.127,0.577,0.345,1.094,0.649,1.537c0.374,0.543,0.909,0.965,1.593,1.253
		c0.66,0.28,1.416,0.422,2.251,0.422h2.268c0.835,0,1.593-0.142,2.251-0.422c0.683-0.288,1.219-0.71,1.593-1.253
		c0.305-0.444,0.522-0.961,0.65-1.536c0.123-0.559,0.183-1.376,0.183-2.499v-3.731H105.099z"/>
	<path clip-path="url(#SVGID_2_)" fill="#FFFFFF" d="M129.339,35.957v2.381c0,1.222-0.344,2.125-1.032,2.709
		c-0.688,0.586-1.757,0.877-3.205,0.877h-1.588c-1.615,0-2.735-0.331-3.359-0.994c-0.625-0.663-0.938-1.91-0.938-3.743v-0.838h1.827
		v1.396c0,0.969,0.176,1.637,0.531,2.006c0.354,0.369,0.984,0.553,1.891,0.553h1.742c0.844,0,1.429-0.157,1.755-0.475
		c0.326-0.315,0.489-0.899,0.489-1.748v-1.42c0-0.438-0.02-0.762-0.06-0.966c-0.039-0.205-0.106-0.394-0.202-0.564
		c-0.239-0.447-1.246-0.801-3.02-1.062c-0.358-0.052-0.642-0.093-0.848-0.123c-0.064-0.015-0.147-0.03-0.251-0.045
		c-1.146-0.187-1.87-0.365-2.173-0.536c-0.461-0.269-0.799-0.63-1.015-1.084c-0.215-0.454-0.321-1.021-0.321-1.698v-2.067
		c0-1.222,0.344-2.125,1.032-2.71c0.688-0.585,1.753-0.877,3.192-0.877h1.266c1.544,0,2.643,0.324,3.3,0.972
		s0.985,1.744,0.985,3.285v0.48H127.5V29.12c0-0.977-0.172-1.645-0.513-2.006c-0.342-0.361-0.971-0.542-1.886-0.542h-1.433
		c-0.852,0-1.44,0.157-1.767,0.469c-0.325,0.313-0.489,0.891-0.489,1.732v1.788c0,0.916,0.815,1.482,2.446,1.698
		c0.374,0.053,0.669,0.094,0.884,0.123c1.854,0.283,3.083,0.677,3.688,1.179C129.036,34.063,129.339,34.862,129.339,35.957"/>
	<path clip-path="url(#SVGID_2_)" fill="#FFFFFF" d="M139.119,24.929c1.614,0,2.783,0.439,3.508,1.319
		c0.724,0.879,1.086,2.317,1.086,4.313v5.767c0,1.987-0.362,3.418-1.086,4.29c-0.725,0.871-1.894,1.307-3.508,1.307h-1.517
		c-1.623,0-2.795-0.436-3.515-1.307c-0.721-0.872-1.081-2.303-1.081-4.29v-5.767c0-1.996,0.36-3.434,1.081-4.313
		c0.72-0.879,1.892-1.319,3.515-1.319H139.119z M138.893,26.572h-1.074c-1.123,0-1.893,0.266-2.311,0.799
		c-0.418,0.532-0.627,1.596-0.627,3.19v5.767c0,1.586,0.209,2.646,0.627,3.178c0.418,0.533,1.188,0.799,2.311,0.799h1.074
		c1.121,0,1.891-0.266,2.31-0.799c0.417-0.532,0.626-1.592,0.626-3.178v-5.767c0-1.594-0.209-2.658-0.626-3.19
		C140.783,26.838,140.014,26.572,138.893,26.572"/>
	<polygon clip-path="url(#SVGID_2_)" fill="#FFFFFF" points="147.692,41.724 147.692,25.13 155.32,25.13 155.32,26.739 
		149.447,26.739 149.447,32.526 154.854,32.526 154.854,34.125 149.447,34.125 149.447,41.724 	"/>
	<polygon clip-path="url(#SVGID_2_)" fill="#FFFFFF" points="160.743,41.724 160.743,26.762 156.947,26.762 156.947,25.153 
		166.294,25.153 166.294,26.762 162.498,26.762 162.498,41.724 	"/>
	<polygon clip-path="url(#SVGID_2_)" fill="#FFFFFF" points="179.977,41.724 176.992,28.426 173.817,41.724 171.765,41.724 
		167.921,25.13 169.688,25.13 172.839,39.6 176.145,25.13 177.9,25.13 181.051,39.6 184.333,25.13 186.088,25.13 182.029,41.724 	
		"/>
	<path clip-path="url(#SVGID_2_)" fill="#FFFFFF" d="M186.223,41.724l5.085-16.593h2.053l4.786,16.593h-1.897l-1.002-3.564h-6.159
		l-1.11,3.564H186.223z M189.542,36.617h5.263l-2.519-9.241L189.542,36.617z"/>
	<path clip-path="url(#SVGID_2_)" fill="#FFFFFF" d="M202.567,35.108v6.614h-1.754V25.13h4.988c2.045,0,3.4,0.29,4.064,0.871
		c0.665,0.581,0.996,1.665,0.996,3.252v1.53c0,1.066-0.222,1.876-0.668,2.431c-0.445,0.555-1.139,0.888-2.076,1
		c0.875,0.163,1.518,0.521,1.928,1.072c0.409,0.551,0.613,1.337,0.613,2.357v4.078h-1.754v-3.318c0-1.318-0.226-2.196-0.674-2.637
		c-0.449-0.439-1.327-0.659-2.633-0.659H202.567z M205.527,26.684h-2.96v6.827h2.96c1.448,0,2.378-0.177,2.787-0.53
		c0.409-0.354,0.615-1.034,0.615-2.04v-2.146c0-0.818-0.193-1.375-0.58-1.67C207.964,26.831,207.023,26.684,205.527,26.684"/>
	<path clip-path="url(#SVGID_2_)" fill="#FFFFFF" d="M55.154,49.095h0.29v1.92c0.401-1.188,1.587-2.068,3.188-2.068
		c2.001,0,3.45,1.437,3.45,3.232v0.024c0,1.797-1.449,3.232-3.45,3.232c-1.601,0-2.787-0.88-3.188-2.067v3.9h-0.29V49.095z
		 M61.777,52.216V52.19c0-1.646-1.27-2.995-3.159-2.995c-1.877,0-3.188,1.374-3.188,2.983v0.024c0,1.599,1.325,2.985,3.188,2.985
		C60.508,55.188,61.777,53.876,61.777,52.216"/>
	<path clip-path="url(#SVGID_2_)" fill="#FFFFFF" d="M64.881,49.095h0.29v1.982c0.332-1.04,1.297-2.131,2.843-2.131v0.248h-0.069
		c-1.711,0-2.774,1.696-2.774,2.885v3.208h-0.29V49.095z"/>
	<path clip-path="url(#SVGID_2_)" fill="#FFFFFF" d="M69.696,52.216v-0.024c0-1.722,1.421-3.245,3.587-3.245
		c2.153,0,3.588,1.487,3.588,3.221v0.024c0,1.747-1.421,3.244-3.588,3.244C71.131,55.436,69.696,53.95,69.696,52.216 M76.568,52.203
		v-0.024c0-1.635-1.366-2.984-3.298-2.984c-1.946,0-3.271,1.35-3.271,2.984v0.024c0,1.635,1.366,2.985,3.297,2.985
		C75.243,55.188,76.568,53.838,76.568,52.203"/>
	<polygon clip-path="url(#SVGID_2_)" fill="#FFFFFF" points="78.912,49.095 79.229,49.095 82.224,55.015 85.205,49.095 
		85.508,49.095 82.334,55.337 82.114,55.337 	"/>
	<path clip-path="url(#SVGID_2_)" fill="#FFFFFF" d="M88.06,46.618h0.428v0.706H88.06V46.618z M88.129,49.095h0.29v6.192h-0.29
		V49.095z"/>
	<path clip-path="url(#SVGID_2_)" fill="#FFFFFF" d="M91.303,52.203v-0.024c0-1.796,1.449-3.232,3.449-3.232
		c1.6,0,2.787,0.88,3.188,2.068v-4.769h0.29v9.042h-0.29v-1.92c-0.4,1.188-1.587,2.067-3.188,2.067
		C92.752,55.436,91.303,54,91.303,52.203 M97.954,52.203v-0.024c0-1.598-1.325-2.984-3.188-2.984c-1.89,0-3.161,1.313-3.161,2.973
		v0.024c0,1.646,1.271,2.997,3.161,2.997C96.642,55.188,97.954,53.814,97.954,52.203"/>
	<path clip-path="url(#SVGID_2_)" fill="#FFFFFF" d="M101.499,46.618h0.427v0.706h-0.427V46.618z M101.568,49.095h0.289v6.192
		h-0.289V49.095z"/>
	<path clip-path="url(#SVGID_2_)" fill="#FFFFFF" d="M105.196,49.095h0.29v1.698c0.221-0.756,1.131-1.847,2.774-1.847
		c1.862,0,2.897,1.127,2.897,2.836v3.505h-0.29v-3.479c0-1.548-0.897-2.613-2.636-2.613c-1.531,0-2.746,1.177-2.746,2.663v3.43
		h-0.29V49.095z"/>
	<path clip-path="url(#SVGID_2_)" fill="#FFFFFF" d="M114.136,56.353l0.18-0.211c0.884,0.607,1.85,0.917,2.953,0.917
		c1.835,0,3.063-0.929,3.063-2.762v-1.264c-0.51,1.053-1.685,1.796-3.104,1.796c-1.878,0-3.408-1.3-3.408-2.923v-0.024
		c0-1.609,1.53-2.936,3.408-2.936c1.42,0,2.595,0.743,3.104,1.796v-1.647h0.29v5.252c0,0.941-0.318,1.659-0.884,2.167
		c-0.593,0.533-1.435,0.793-2.47,0.793C116.109,57.307,115.089,56.984,114.136,56.353 M120.359,51.919v-0.024
		c0-1.449-1.394-2.7-3.119-2.7c-1.725,0-3.104,1.201-3.104,2.676v0.024c0,1.486,1.38,2.688,3.104,2.688
		C118.966,54.582,120.359,53.368,120.359,51.919"/>
	<path clip-path="url(#SVGID_2_)" fill="#FFFFFF" d="M127.754,56.972l0.139-0.21c0.317,0.16,0.772,0.31,1.159,0.31
		c0.813,0,1.228-0.298,2-1.783l-3.325-6.193h0.317l3.146,5.92l2.967-5.92h0.303l-3.2,6.316c-0.814,1.586-1.313,1.896-2.208,1.896
		C128.568,57.307,128.072,57.157,127.754,56.972"/>
	<path clip-path="url(#SVGID_2_)" fill="#FFFFFF" d="M136.474,52.216v-0.024c0-1.722,1.422-3.245,3.588-3.245
		c2.152,0,3.587,1.487,3.587,3.221v0.024c0,1.747-1.421,3.244-3.587,3.244C137.908,55.436,136.474,53.95,136.474,52.216
		 M143.346,52.203v-0.024c0-1.635-1.367-2.984-3.298-2.984c-1.946,0-3.271,1.35-3.271,2.984v0.024c0,1.635,1.365,2.985,3.298,2.985
		C142.021,55.188,143.346,53.838,143.346,52.203"/>
	<path clip-path="url(#SVGID_2_)" fill="#FFFFFF" d="M146.27,52.6v-3.504h0.29v3.479c0,1.548,0.896,2.613,2.636,2.613
		c1.531,0,2.746-1.177,2.746-2.663v-3.43h0.289v6.191h-0.289v-1.696c-0.221,0.756-1.133,1.846-2.774,1.846
		C147.305,55.437,146.27,54.309,146.27,52.6"/>
	<path clip-path="url(#SVGID_2_)" fill="#FFFFFF" d="M155.486,49.095h0.289v1.982c0.331-1.04,1.298-2.131,2.844-2.131v0.248h-0.07
		c-1.711,0-2.773,1.696-2.773,2.885v3.208h-0.289V49.095z"/>
	<path clip-path="url(#SVGID_2_)" fill="#FFFFFF" d="M164.867,52.19v-0.023c0-1.833,1.395-3.221,3.312-3.221
		c2.181,0,3.174,1.721,3.174,3.27v0.05h-6.167c0.041,1.784,1.463,2.923,3.146,2.923c1.063,0,2.001-0.558,2.553-1.252l0.234,0.149
		c-0.593,0.781-1.587,1.351-2.801,1.351C166.44,55.437,164.867,54.174,164.867,52.19 M171.036,52.03
		c-0.069-1.412-1.035-2.836-2.871-2.836c-1.71,0-2.911,1.214-2.979,2.836H171.036z"/>
	<rect x="173.767" y="51.473" clip-path="url(#SVGID_2_)" fill="#FFFFFF" width="3.421" height="0.261"/>
	<path clip-path="url(#SVGID_2_)" fill="#FFFFFF" d="M180.127,49.095h0.289v1.698c0.222-0.756,1.132-1.847,2.774-1.847
		c1.864,0,2.897,1.127,2.897,2.836v3.505h-0.289v-3.479c0-1.548-0.897-2.613-2.636-2.613c-1.532,0-2.747,1.177-2.747,2.663v3.43
		h-0.289V49.095z"/>
	<path clip-path="url(#SVGID_2_)" fill="#FFFFFF" d="M188.723,52.19v-0.023c0-1.833,1.393-3.221,3.313-3.221
		c2.179,0,3.173,1.721,3.173,3.27v0.05h-6.167c0.04,1.784,1.462,2.923,3.146,2.923c1.062,0,2-0.558,2.552-1.252l0.234,0.149
		c-0.593,0.781-1.587,1.351-2.801,1.351C190.295,55.437,188.723,54.174,188.723,52.19 M194.891,52.03
		c-0.069-1.412-1.034-2.836-2.87-2.836c-1.711,0-2.912,1.214-2.979,2.836H194.891z"/>
	<path clip-path="url(#SVGID_2_)" fill="#FFFFFF" d="M197.456,52.19v-0.023c0-1.833,1.395-3.221,3.312-3.221
		c2.181,0,3.175,1.721,3.175,3.27v0.05h-6.169c0.042,1.784,1.463,2.923,3.146,2.923c1.063,0,2-0.558,2.554-1.252l0.233,0.149
		c-0.594,0.781-1.587,1.351-2.801,1.351C199.029,55.437,197.456,54.174,197.456,52.19 M203.624,52.03
		c-0.068-1.412-1.035-2.836-2.87-2.836c-1.711,0-2.912,1.214-2.98,2.836H203.624z"/>
	<path clip-path="url(#SVGID_2_)" fill="#FFFFFF" d="M206.217,52.203v-0.024c0-1.796,1.449-3.232,3.45-3.232
		c1.602,0,2.787,0.88,3.188,2.068v-4.769h0.289v9.042h-0.289v-1.92c-0.4,1.188-1.586,2.067-3.188,2.067
		C207.666,55.436,206.217,54,206.217,52.203 M212.867,52.203v-0.024c0-1.598-1.324-2.984-3.188-2.984
		c-1.89,0-3.159,1.313-3.159,2.973v0.024c0,1.646,1.27,2.997,3.159,2.997C211.558,55.188,212.867,53.814,212.867,52.203"/>
	<path clip-path="url(#SVGID_2_)" fill="#FFFFFF" d="M215.724,54.482l0.179-0.21c0.772,0.581,1.726,0.879,2.622,0.879
		c1.255,0,2.181-0.569,2.181-1.375v-0.024c0-0.967-1.146-1.214-2.264-1.511c-1.407-0.371-2.415-0.669-2.415-1.66v-0.023
		c0-0.856,0.953-1.574,2.401-1.574c0.772,0,1.67,0.235,2.4,0.694l-0.165,0.223c-0.676-0.434-1.504-0.669-2.235-0.669
		c-1.27,0-2.098,0.57-2.098,1.313v0.025c0,0.817,0.995,1.127,2.194,1.424c1.379,0.335,2.483,0.681,2.483,1.746v0.024
		c0,0.967-1.062,1.636-2.497,1.636C217.53,55.399,216.496,55.064,215.724,54.482"/>
	<polygon clip-path="url(#SVGID_2_)" fill="#FFFFFF" points="221.018,26.739 221.018,25.13 213.391,25.13 213.391,40.164 
		213.391,41.723 215.146,41.723 220.988,41.723 220.988,40.164 215.146,40.164 215.146,34.125 220.552,34.125 220.552,32.526 
		215.146,32.526 215.146,26.739 	"/>
</g>
</svg>
